Coordinates
version=1
nRows=24
nColumns=24
inDegrees=yes

Units are S.I. units (second, meters, Newtons, ...)
Angles are in degrees.

endheader
time	pelvis_tilt	pelvis_list	pelvis_rotation	pelvis_tx	pelvis_ty	pelvis_tz	hip_flexion_r	hip_adduction_r	hip_rotation_r	knee_angle_r	ankle_angle_r	subtalar_angle_r	mtp_angle_r	hip_flexion_l	hip_adduction_l	hip_rotation_l	knee_angle_l	ankle_angle_l	subtalar_angle_l	mtp_angle_l	lumbar_extension	lumbar_bending	lumbar_rotation
      0.47800000	      1.32177969	      0.55506662	     -3.29909373	     -0.78512571	      1.00050500	      0.27994109	     16.67144013	      0.24995555	     -0.21622067	      2.81795636	      1.24886054	     -3.59903937	      0.34224267	    -18.91242611	      5.63805780	      9.00183715	     -2.77318386	     10.38717624	    -11.33439301	     -0.67421163	    -15.44351956	      8.62813508	     -7.21427462
      0.48216667	      1.29956431	      0.44606728	     -3.34380257	     -0.77958900	      0.99985396	      0.28041859	     16.75082658	      0.43708868	      0.09406251	      2.44611526	      0.95747969	     -3.76295834	      0.55566871	    -18.97308402	      5.55296813	      8.70188897	     -3.32603653	     10.65696198	    -10.91371664	     -1.08734484	    -15.44058763	      8.74838162	     -7.16463835
      0.48633333	      1.26486394	      0.31631600	     -3.40188932	     -0.77398145	      0.99922657	      0.28089415	     16.86850770	      0.64886282	      0.33908501	      1.95459832	      0.65451121	     -3.82970025	      0.72266471	    -19.04449366	      5.45281451	      8.48643898	     -3.83116369	     10.81768516	    -10.66914105	     -1.32162059	    -15.40956805	      8.89289891	     -7.01055311
      0.49050000	      1.26324037	      0.17218659	     -3.44437405	     -0.76837636	      0.99869262	      0.28135832	     16.93619390	      0.86968003	      0.60097391	      1.43591824	      0.30056772	     -3.97263338	      0.88410716	    -19.10051208	      5.33870959	      8.23360380	     -4.44062846	     11.00898789	    -10.38092026	     -1.47201068	    -15.43330141	      9.05666267	     -6.91322492
      0.49466667	      1.23679423	      0.00772380	     -3.48998102	     -0.76271668	      0.99816999	      0.28182635	     17.03182150	      1.11303905	      0.85829559	      0.85570772	     -0.04592800	     -4.08423928	      0.98513200	    -19.12541454	      5.20728037	      8.02692516	     -5.07015240	     11.13020571	    -10.22933127	     -1.52528198	    -15.42822292	      9.25513963	     -6.81118542
      0.49883333	      1.23203819	     -0.13432143	     -3.53449711	     -0.75706968	      0.99770159	      0.28231577	     17.12268055	      1.33544970	      1.10598433	      0.20462190	     -0.47491644	     -4.34091888	      1.13787993	    -19.11796552	      5.09592299	      7.70509383	     -5.80460851	     11.33289711	     -9.81153144	     -1.54709150	    -15.43973452	      9.39357491	     -6.67559364
      0.50300000	      1.19422394	     -0.29566185	     -3.57592381	     -0.75137169	      0.99723660	      0.28279810	     17.24388936	      1.57851015	      1.34240702	     -0.48252066	     -0.89060506	     -4.56918859	      1.28710369	    -19.05095485	      4.96567659	      7.39996530	     -6.59044966	     11.47416202	     -9.49744886	     -1.51334824	    -15.41389823	      9.58014008	     -6.56987635
      0.50716667	      1.17482092	     -0.46949022	     -3.61434958	     -0.74564748	      0.99683012	      0.28328742	     17.34153203	      1.83353140	      1.57742844	     -1.19797232	     -1.30745072	     -4.83332808	      1.44954943	    -18.97450169	      4.82128535	      7.06995589	     -7.44035067	     11.60222171	     -9.14879488	     -1.41638191	    -15.41682007	      9.76812260	     -6.45811824
      0.51133333	      1.15713880	     -0.64049162	     -3.65298242	     -0.73989405	      0.99646140	      0.28377306	     17.44039506	      2.08528155	      1.79048270	     -1.94758288	     -1.72546308	     -5.11767300	      1.60241796	    -18.87618974	      4.68059627	      6.73693891	     -8.33507766	     11.69655223	     -8.81854924	     -1.26725268	    -15.40435922	      9.97129867	     -6.34821635
      0.51550000	      1.17158275	     -0.84047483	     -3.68320698	     -0.73411172	      0.99617031	      0.28426265	     17.49411813	      2.36359813	      1.98482132	     -2.70780839	     -2.11479063	     -5.41493788	      1.88392447	    -18.77363006	      4.50290840	      6.33937787	     -9.31317492	     11.81691662	     -8.37555658	     -0.88489285	    -15.44475910	     10.20710491	     -6.26724306
      0.51966667	      1.10280797	     -1.00951700	     -3.72779622	     -0.72828119	      0.99580221	      0.28474352	     17.65982591	      2.61749491	      2.18215573	     -3.53751343	     -2.44434608	     -5.70318732	      1.96237883	    -18.59443897	      4.36891710	      6.09456282	    -10.25312008	     11.71337060	     -8.30112328	     -0.73895783	    -15.35419658	     10.42231221	     -6.14824964
      0.52383333	      1.10969587	     -1.18583126	     -3.74280545	     -0.72249679	      0.99556733	      0.28524276	     17.72869634	      2.87005496	      2.34405106	     -4.33989134	     -2.85856677	     -6.08797230	      2.15148559	    -18.40289485	      4.19774467	      5.63674619	    -11.37982596	     11.80057076	     -7.70387363	     -0.28042164	    -15.38734931	     10.59585190	     -6.04919797
      0.52800000	      1.03853156	     -1.33872160	     -3.75665525	     -0.71666802	      0.99527257	      0.28572414	     17.88382957	      3.10120977	      2.51731280	     -5.17148126	     -3.13111286	     -6.43454228	      2.28478383	    -18.11127154	      4.05473400	      5.29220039	    -12.52684747	     11.68359012	     -7.44408368	      0.12633336	    -15.29665639	     10.76877732	     -5.94797399
      0.53216667	      1.06790413	     -1.55298460	     -3.78054942	     -0.71078138	      0.99514152	      0.28623072	     17.90336435	      3.39462479	      2.69501328	     -5.97271021	     -3.40631107	     -6.86936862	      3.64793861	    -17.93646053	      3.84408201	      4.88177803	    -13.64919652	     11.44668952	     -7.15896425	      5.19145965	    -15.34537388	     11.02265664	     -5.85263557
      0.53633333	      1.01678153	     -1.71228687	     -3.78459101	     -0.70491012	      0.99493978	      0.28668735	     18.04834439	      3.62463169	      2.78224748	     -6.86233683	     -3.55735439	     -7.12461174	      3.66001229	    -17.61848208	      3.68032767	      4.52510338	    -14.87204714	     11.22994701	     -6.83935309	      5.29723753	    -15.27929163	     11.20879280	     -5.77184169
      0.54050000	      0.99557096	     -1.89002121	     -3.78698082	     -0.69902034	      0.99480719	      0.28716652	     18.13603693	      3.87548152	      2.90561184	     -7.71654184	     -3.66744112	     -7.46735155	      3.66586699	    -17.30328655	      3.48621532	      4.12323526	    -16.15177130	     10.98931966	     -6.45924754	      5.52229864	    -15.25019421	     11.41765005	     -5.68475790
      0.54466667	      0.96725519	     -2.05087683	     -3.79426673	     -0.69311325	      0.99471023	      0.28766418	     18.21872017	      4.11222680	      3.06103919	     -8.56045429	     -3.65367795	     -7.78990756	      3.66576073	    -16.95505836	      3.30464257	      3.73046137	    -17.45634874	     10.60581174	     -6.17761764	      5.75564000	    -15.19936572	     11.59761740	     -5.60609461
      0.54883333	      0.99010601	     -2.26086101	     -3.78058574	     -0.68717365	      0.99472202	      0.28815847	     18.21849684	      4.39390098	      3.17873220	     -9.36064257	     -3.70887428	     -8.19694972	      3.51444709	    -16.63915627	      3.04603915	      3.27657074	    -18.79115576	     10.10957970	     -5.79210587	     10.50400813	    -15.22776937	     11.83894993	     -5.50288474
      0.55300000	      0.97118407	     -2.40634479	     -3.76581659	     -0.68127215	      0.99469001	      0.28861629	     18.30643488	      4.60450629	      3.24735090	    -10.25934593	     -3.52100804	     -8.41702059	      3.50709373	    -16.23871685	      2.85531248	      2.89476133	    -20.18466910	      9.61782789	     -5.46611609	     10.60926401	    -15.18745627	     12.00908716	     -5.43747276
      0.55716667	      0.95020160	     -2.58057769	     -3.73261110	     -0.67534619	      0.99470376	      0.28908886	     18.36376542	      4.84412232	      3.32006350	    -11.10501013	     -3.33571238	     -8.69154021	      3.48293362	    -15.80369471	      2.60915170	      2.48900925	    -21.62337379	      9.07955134	     -5.04821259	     10.84624186	    -15.15543588	     12.19438535	     -5.36719766
      0.56133333	      0.95357447	     -2.74900115	     -3.70070297	     -0.66941850	      0.99477944	      0.28956936	     18.38187749	      5.07764282	      3.39677919	    -11.93084604	     -3.07949472	     -8.95152007	      3.44241754	    -15.37105048	      2.35690046	      2.06787493	    -23.08608780	      8.43037599	     -4.63365769	     11.21134376	    -15.14753178	     12.38007720	     -5.29003285
      0.56550000	      0.99557066	     -2.94526605	     -3.65907215	     -0.66346713	      0.99495643	      0.29007002	     18.30749395	      5.34370156	      3.52667289	    -12.66675726	     -2.77777269	     -9.31392660	      2.69182634	    -14.96413470	      2.05695574	      1.63149963	    -24.54730229	      7.56991302	     -4.32138397	     16.65932941	    -15.17618880	     12.59653198	     -5.22334147
      0.56966667	      0.99742772	     -3.09902902	     -3.62086337	     -0.65752345	      0.99510454	      0.29055053	     18.29584051	      5.55765776	      3.59231308	    -13.44433266	     -2.37355619	     -9.43539238	      2.68332350	    -14.48785888	      1.79532217	      1.23136425	    -26.03768522	      6.67157856	     -3.98801576	     16.72879205	    -15.14844172	     12.74506219	     -5.16280148
      0.57383333	      1.01459416	     -3.25940270	     -3.56204379	     -0.65160934	      0.99528376	      0.29101921	     18.25857178	      5.77376768	      3.62715776	    -14.20578463	     -1.94901899	     -9.61075081	      2.65558266	    -13.98745119	      1.49986832	      0.81420696	    -27.58261091	      5.79189797	     -3.54620570	     16.89570358	    -15.14705993	     12.91237040	     -5.09085478
